<?xml version="1.0" encoding="UTF-8"?>
<svg version="1.1" xmlns="http://www.w3.org/2000/svg" width="424" height="346">
<path d="M0 0 C139.92 0 279.84 0 424 0 C424 114.18 424 228.36 424 346 C284.08 346 144.16 346 0 346 C0 231.82 0 117.64 0 0 Z " fill="#FEFEFE" transform="translate(0,0)"/>
<path d="M0 0 C12.16486526 10.02239646 15.97824522 25.75919831 20.9921875 40.15625 C22.2822047 43.83307185 23.57608934 47.50852574 24.87109375 51.18359375 C25.1801767 52.06126907 25.48925964 52.9389444 25.80770874 53.84321594 C32.55647486 74.87739127 32.55647486 74.87739127 48.4296875 89.21875 C55.32713683 92.3702675 62.50417977 92.46821641 69.94726562 92.82421875 C75.32589286 93.11495536 75.32589286 93.11495536 76.4296875 94.21875 C76.53039091 97.36368037 76.56582747 100.48669329 76.55908203 103.63208008 C76.56171051 105.11495766 76.56171051 105.11495766 76.56439209 106.62779236 C76.56881387 109.91463955 76.5658708 113.20143345 76.5625 116.48828125 C76.56317311 118.76413483 76.56414319 121.03998834 76.56539917 123.31584167 C76.56687672 128.09508954 76.56472037 132.87431875 76.56005859 137.65356445 C76.55437096 143.78392178 76.55763383 149.91423524 76.56363106 156.04459095 C76.5672434 160.74826895 76.56609481 165.45193654 76.56350327 170.15561485 C76.56283536 172.41588026 76.56365767 174.6761466 76.56598282 176.9364109 C76.56851927 180.09671151 76.56465419 183.25694102 76.55908203 186.41723633 C76.56110626 187.35505951 76.56313049 188.29288269 76.56521606 189.25912476 C76.56098633 190.55257057 76.56098633 190.55257057 76.55667114 191.87214661 C76.55629412 192.61934369 76.55591709 193.36654078 76.55552864 194.1363802 C76.4242921 196.30803089 76.13893041 198.16039036 75.4296875 200.21875 C69.76110872 203.05303939 60.65079461 201.60222293 54.64453125 200.02734375 C45.18545277 196.57402938 37.3669986 190.25272778 32.93115234 181.14038086 C32.46402832 180.02026611 31.9969043 178.90015137 31.515625 177.74609375 C31.2596756 177.13442856 31.0037262 176.52276337 30.74002075 175.89256287 C28.11899381 169.57675894 25.69774389 163.18632764 23.3046875 156.78125 C22.59461085 154.9013233 21.88451622 153.02140324 21.17358398 151.14179993 C19.39916003 146.4495447 17.63007464 141.75531812 15.87011719 137.05761719 C14.56974279 133.58873119 13.25816895 130.12424056 11.94000244 126.66207886 C11.44204836 125.34839869 10.94788156 124.03327522 10.45794678 122.71658325 C5.27899176 107.2299967 5.27899176 107.2299967 -5.2578125 95.53125 C-11.02866714 93.24468495 -16.52725916 92.03006203 -22.65625 93.83203125 C-32.3436946 98.04477057 -36.00235674 107.67869878 -39.7578125 116.90625 C-40.22848145 118.04054443 -40.69915039 119.17483887 -41.18408203 120.34350586 C-45.5592277 130.98309771 -49.61533606 141.74094874 -53.6640625 152.5078125 C-56.60797841 160.33420911 -59.57035769 168.15308245 -62.59307861 175.94943237 C-63.15528426 177.40523618 -63.71328334 178.86267243 -64.26678467 180.32180786 C-65.0419045 182.36348826 -65.83168132 184.39892768 -66.625 186.43359375 C-67.07343262 187.60011475 -67.52186523 188.76663574 -67.98388672 189.96850586 C-70.32883121 194.77279119 -73.06578816 198.21573378 -77.5703125 201.21875 C-81.71611919 201.68808661 -84.01794641 201.5003484 -87.7578125 199.59375 C-94.26213158 194.10121388 -96.59377507 186.64664886 -99.60546875 178.89453125 C-100.33802505 177.03568477 -101.07058266 175.1768388 -101.80320644 173.31801891 C-102.82836595 170.71168252 -103.84698181 168.10280804 -104.86572266 165.49395752 C-106.1141321 162.29972594 -107.36846333 159.10782626 -108.62304688 155.91601562 C-108.86907843 155.28991331 -109.11510998 154.663811 -109.36859703 154.01873589 C-111.3538472 148.96828493 -113.34384292 143.91971243 -115.3386631 138.87303352 C-116.58789126 135.71203602 -117.83310163 132.5495698 -119.07000732 129.38372803 C-120.51319391 125.69165597 -121.97665136 122.00778984 -123.44140625 118.32421875 C-123.86962173 117.22064529 -124.29783722 116.11707184 -124.73902893 114.98005676 C-127.81689183 107.30362529 -131.56515399 98.75257926 -139.3828125 94.84375 C-145.5424063 93.08386606 -152.15034929 93.16276605 -158.0078125 95.71875 C-163.71827229 101.28993029 -167.50150733 107.43988599 -170.5078125 114.78125 C-170.86987793 115.64331055 -171.23194336 116.50537109 -171.60498047 117.39355469 C-176.33008777 128.80665362 -180.69183049 140.37343383 -185.07788086 151.92016602 C-188.08829556 159.83915249 -191.13337409 167.74229206 -194.31640625 175.59375 C-194.59300079 176.28635925 -194.86959534 176.97896851 -195.15457153 177.69256592 C-198.82178731 186.63963619 -203.82469224 192.97138934 -212.5703125 197.21875 C-220.54807459 200.47497942 -229.05420648 200.67544969 -237.5703125 200.21875 C-239.11041937 198.67864313 -238.69624833 197.2647641 -238.69729614 195.11901855 C-238.70011597 194.23560287 -238.70293579 193.35218719 -238.70584106 192.44200134 C-238.70381683 191.46534012 -238.7017926 190.48867889 -238.69970703 189.48242188 C-238.70145935 188.45975723 -238.70321167 187.43709259 -238.70501709 186.38343811 C-238.70943777 182.98477508 -238.70649685 179.58616361 -238.703125 176.1875 C-238.70379798 173.83719879 -238.70476795 171.48689765 -238.70602417 169.13659668 C-238.70750144 164.20352518 -238.70534566 159.27047175 -238.70068359 154.33740234 C-238.6949863 147.99824333 -238.69826515 141.65912664 -238.70425606 135.31996918 C-238.70786089 130.46457599 -238.70672344 125.60919292 -238.70412827 120.75379944 C-238.70345878 118.41569514 -238.70428816 116.07758994 -238.70660782 113.73948669 C-238.70913307 110.47799223 -238.70529554 107.21656737 -238.69970703 103.95507812 C-238.70274338 102.49008629 -238.70274338 102.49008629 -238.70584106 100.99549866 C-238.70302124 100.11208298 -238.70020142 99.2286673 -238.69729614 98.31848145 C-238.69691912 97.54639595 -238.69654209 96.77431046 -238.69615364 95.97882843 C-238.5703125 94.21875 -238.5703125 94.21875 -237.5703125 93.21875 C-235.26003792 93.05777603 -232.94665258 92.9408342 -230.6328125 92.84375 C-220.21043505 92.25601731 -210.37752548 90.18534753 -202.85351562 82.45483398 C-197.55263205 76.01487326 -194.94300474 69.24088998 -192.2578125 61.40625 C-191.79115802 60.08818674 -191.32278295 58.77073152 -190.8527832 57.45385742 C-189.40481339 53.38253307 -187.98596562 49.30140125 -186.5703125 45.21875 C-185.22906829 41.36089814 -183.88343507 37.50470435 -182.52856445 33.65161133 C-181.70708571 31.31122549 -180.89505536 28.9674923 -180.09448242 26.61987305 C-176.96423704 17.65779037 -173.52247648 7.88038135 -166.0078125 1.65625 C-165.28464844 1.03621094 -164.56148438 0.41617188 -163.81640625 -0.22265625 C-157.02006246 -4.93872786 -149.50357433 -4.43750936 -141.5703125 -3.78125 C-132.32037626 -1.54573719 -125.71352685 5.0328062 -120.85958862 12.90563965 C-118.68973851 16.7986015 -117.17804374 20.89425236 -115.64453125 25.0703125 C-115.29324661 26.00563812 -114.94196198 26.94096375 -114.58003235 27.90463257 C-113.46442456 30.88134844 -112.36102951 33.86242294 -111.2578125 36.84375 C-110.53007611 38.78935414 -109.80156588 40.73466902 -109.07226562 42.6796875 C-106.12502912 50.5597228 -103.19022949 58.44201954 -100.38525391 66.37402344 C-100.03098831 67.3694516 -99.67672272 68.36487976 -99.3117218 69.39047241 C-98.6420738 71.27711175 -97.97917624 73.16616642 -97.3243866 75.05801392 C-93.92018899 84.63350055 -93.92018899 84.63350055 -86.5703125 91.21875 C-82.3942521 92.21452041 -78.93116994 93.02130695 -75.1328125 90.78125 C-74.6171875 90.265625 -74.1015625 89.75 -73.5703125 89.21875 C-72.9103125 89.21875 -72.2503125 89.21875 -71.5703125 89.21875 C-69.79947799 84.87084739 -68.16391095 80.47569046 -66.54296875 76.0703125 C-66.24101089 75.25068024 -65.93905304 74.43104797 -65.62794495 73.58657837 C-63.43636216 67.6198015 -61.28172802 61.64030379 -59.14071655 55.6552124 C-57.51814052 51.12220591 -55.88643524 46.59250644 -54.25415039 42.06298828 C-53.41735578 39.73373238 -52.58472857 37.40297547 -51.75610352 35.07080078 C-50.53756284 31.64456516 -49.30347592 28.22426976 -48.06640625 24.8046875 C-47.70373154 23.77330658 -47.34105682 22.74192566 -46.96739197 21.67929077 C-42.75072457 10.12631014 -36.91309235 1.39013992 -25.6953125 -4.21875 C-16.48091517 -5.87734152 -7.82399933 -5.42210288 0 0 Z " fill="#010101" transform="translate(293.5703125,65.78125)"/>
</svg>
